<?xml version="1.0" encoding="utf-8"?>
<!-- Generator: Adobe Illustrator 19.0.0, SVG Export Plug-In . SVG Version: 6.00 Build 0)  -->
<svg version="1.1" id="Layer_1" xmlns="http://www.w3.org/2000/svg" xmlns:xlink="http://www.w3.org/1999/xlink" x="0px" y="0px"
	 viewBox="0 0 28.3 28.3" style="enable-background:new 0 0 28.3 28.3;" xml:space="preserve">
<g>
	<g>
		<path d="M12.5,21.9c-5.6,0-10.2-4.6-10.2-10.2c0-5.6,4.6-10.2,10.2-10.2c5.6,0,10.2,4.6,10.2,10.2C22.7,17.4,18.2,21.9,12.5,21.9z
			 M12.5,2.6c-5.1,0-9.2,4.1-9.2,9.2c0,5.1,4.1,9.2,9.2,9.2c5.1,0,9.2-4.1,9.2-9.2C21.7,6.7,17.6,2.6,12.5,2.6z"/>
	</g>
	<g>
		<path d="M25.5,26.8c-0.1,0-0.3,0-0.4-0.1l-6.9-6.9c-0.2-0.2-0.2-0.5,0-0.7c0.2-0.2,0.5-0.2,0.7,0l6.9,6.9c0.2,0.2,0.2,0.5,0,0.7
			C25.7,26.7,25.6,26.8,25.5,26.8z"/>
	</g>
</g>
</svg>
